<svg width="968.0000000000001" height="496.1" xmlns="http://www.w3.org/2000/svg" xmlns:xlink="http://www.w3.org/1999/xlink"><line x1="290.109375" y1="7.5" x2="277.609375" y2="32.0" style="stroke:black; stroke-width:1px;" />
<line x1="277.609375" y1="39.5" x2="66.5" y2="64.0" style="stroke:black; stroke-width:1px;" />
<line x1="66.5" y1="71.5" x2="13.5" y2="96.0" style="stroke:black; stroke-width:1px;" />
<line x1="66.5" y1="71.5" x2="47.5" y2="96.0" style="stroke:black; stroke-width:1px;" />
<line x1="47.5" y1="103.5" x2="47.5" y2="128.0" style="stroke:black; stroke-width:1px;" />
<line x1="66.5" y1="71.5" x2="71.5" y2="96.0" style="stroke:black; stroke-width:1px;" />
<line x1="66.5" y1="71.5" x2="95.5" y2="96.0" style="stroke:black; stroke-width:1px;" />
<line x1="95.5" y1="103.5" x2="95.5" y2="128.0" style="stroke:black; stroke-width:1px;" />
<line x1="66.5" y1="71.5" x2="119.5" y2="96.0" style="stroke:black; stroke-width:1px;" />
<line x1="277.609375" y1="39.5" x2="227.25" y2="64.0" style="stroke:black; stroke-width:1px;" />
<line x1="227.25" y1="71.5" x2="162.5" y2="96.0" style="stroke:black; stroke-width:1px;" />
<line x1="227.25" y1="71.5" x2="215.5" y2="96.0" style="stroke:black; stroke-width:1px;" />
<line x1="215.5" y1="103.5" x2="215.5" y2="128.0" style="stroke:black; stroke-width:1px;" />
<line x1="227.25" y1="71.5" x2="240.75" y2="96.0" style="stroke:black; stroke-width:1px;" />
<line x1="227.25" y1="71.5" x2="267.0" y2="96.0" style="stroke:black; stroke-width:1px;" />
<line x1="267.0" y1="103.5" x2="267.0" y2="128.0" style="stroke:black; stroke-width:1px;" />
<line x1="267.0" y1="135.5" x2="267.0" y2="160.0" style="stroke:black; stroke-width:1px;" />
<line x1="267.0" y1="167.5" x2="220.0" y2="192.0" style="stroke:black; stroke-width:1px;" />
<line x1="267.0" y1="167.5" x2="269.5" y2="192.0" style="stroke:black; stroke-width:1px;" />
<line x1="269.5" y1="199.5" x2="269.5" y2="224.0" style="stroke:black; stroke-width:1px;" />
<line x1="269.5" y1="231.5" x2="234.75" y2="256.0" style="stroke:black; stroke-width:1px;" />
<line x1="234.75" y1="263.5" x2="234.75" y2="288.0" style="stroke:black; stroke-width:1px;" />
<line x1="269.5" y1="231.5" x2="261.75" y2="256.0" style="stroke:black; stroke-width:1px;" />
<line x1="269.5" y1="231.5" x2="304.25" y2="256.0" style="stroke:black; stroke-width:1px;" />
<line x1="304.25" y1="263.5" x2="304.25" y2="288.0" style="stroke:black; stroke-width:1px;" />
<line x1="304.25" y1="295.5" x2="276.75" y2="320.0" style="stroke:black; stroke-width:1px;" />
<line x1="276.75" y1="327.5" x2="276.75" y2="352.0" style="stroke:black; stroke-width:1px;" />
<line x1="276.75" y1="359.5" x2="276.75" y2="384.0" style="stroke:black; stroke-width:1px;" />
<line x1="304.25" y1="295.5" x2="304.25" y2="320.0" style="stroke:black; stroke-width:1px;" />
<line x1="304.25" y1="295.5" x2="331.75" y2="320.0" style="stroke:black; stroke-width:1px;" />
<line x1="331.75" y1="327.5" x2="331.75" y2="352.0" style="stroke:black; stroke-width:1px;" />
<line x1="331.75" y1="359.5" x2="331.75" y2="384.0" style="stroke:black; stroke-width:1px;" />
<line x1="267.0" y1="167.5" x2="314.0" y2="192.0" style="stroke:black; stroke-width:1px;" />
<line x1="227.25" y1="71.5" x2="292.0" y2="96.0" style="stroke:black; stroke-width:1px;" />
<line x1="277.609375" y1="39.5" x2="488.71875" y2="64.0" style="stroke:black; stroke-width:1px;" />
<line x1="488.71875" y1="71.5" x2="488.71875" y2="96.0" style="stroke:black; stroke-width:1px;" />
<line x1="488.71875" y1="103.5" x2="331.75" y2="128.0" style="stroke:black; stroke-width:1px;" />
<line x1="488.71875" y1="103.5" x2="381.25" y2="128.0" style="stroke:black; stroke-width:1px;" />
<line x1="381.25" y1="135.5" x2="381.25" y2="160.0" style="stroke:black; stroke-width:1px;" />
<line x1="381.25" y1="167.5" x2="346.5" y2="192.0" style="stroke:black; stroke-width:1px;" />
<line x1="346.5" y1="199.5" x2="346.5" y2="224.0" style="stroke:black; stroke-width:1px;" />
<line x1="381.25" y1="167.5" x2="373.5" y2="192.0" style="stroke:black; stroke-width:1px;" />
<line x1="381.25" y1="167.5" x2="416.0" y2="192.0" style="stroke:black; stroke-width:1px;" />
<line x1="416.0" y1="199.5" x2="416.0" y2="224.0" style="stroke:black; stroke-width:1px;" />
<line x1="416.0" y1="231.5" x2="416.0" y2="256.0" style="stroke:black; stroke-width:1px;" />
<line x1="416.0" y1="263.5" x2="416.0" y2="288.0" style="stroke:black; stroke-width:1px;" />
<line x1="416.0" y1="295.5" x2="416.0" y2="320.0" style="stroke:black; stroke-width:1px;" />
<line x1="488.71875" y1="103.5" x2="491.21875" y2="128.0" style="stroke:black; stroke-width:1px;" />
<line x1="488.71875" y1="103.5" x2="601.1875" y2="128.0" style="stroke:black; stroke-width:1px;" />
<line x1="601.1875" y1="135.5" x2="601.1875" y2="160.0" style="stroke:black; stroke-width:1px;" />
<line x1="601.1875" y1="167.5" x2="469.5" y2="192.0" style="stroke:black; stroke-width:1px;" />
<line x1="601.1875" y1="167.5" x2="517.5" y2="192.0" style="stroke:black; stroke-width:1px;" />
<line x1="517.5" y1="199.5" x2="473.5" y2="224.0" style="stroke:black; stroke-width:1px;" />
<line x1="473.5" y1="231.5" x2="473.5" y2="256.0" style="stroke:black; stroke-width:1px;" />
<line x1="473.5" y1="263.5" x2="473.5" y2="288.0" style="stroke:black; stroke-width:1px;" />
<line x1="473.5" y1="295.5" x2="473.5" y2="320.0" style="stroke:black; stroke-width:1px;" />
<line x1="473.5" y1="327.5" x2="473.5" y2="352.0" style="stroke:black; stroke-width:1px;" />
<line x1="517.5" y1="199.5" x2="517.5" y2="224.0" style="stroke:black; stroke-width:1px;" />
<line x1="517.5" y1="199.5" x2="561.5" y2="224.0" style="stroke:black; stroke-width:1px;" />
<line x1="561.5" y1="231.5" x2="561.5" y2="256.0" style="stroke:black; stroke-width:1px;" />
<line x1="561.5" y1="263.5" x2="561.5" y2="288.0" style="stroke:black; stroke-width:1px;" />
<line x1="561.5" y1="295.5" x2="561.5" y2="320.0" style="stroke:black; stroke-width:1px;" />
<line x1="561.5" y1="327.5" x2="561.5" y2="352.0" style="stroke:black; stroke-width:1px;" />
<line x1="601.1875" y1="167.5" x2="624.1875" y2="192.0" style="stroke:black; stroke-width:1px;" />
<line x1="601.1875" y1="167.5" x2="732.875" y2="192.0" style="stroke:black; stroke-width:1px;" />
<line x1="732.875" y1="199.5" x2="732.875" y2="224.0" style="stroke:black; stroke-width:1px;" />
<line x1="732.875" y1="231.5" x2="598.0" y2="256.0" style="stroke:black; stroke-width:1px;" />
<line x1="732.875" y1="231.5" x2="647.5" y2="256.0" style="stroke:black; stroke-width:1px;" />
<line x1="647.5" y1="263.5" x2="647.5" y2="288.0" style="stroke:black; stroke-width:1px;" />
<line x1="647.5" y1="295.5" x2="629.5" y2="320.0" style="stroke:black; stroke-width:1px;" />
<line x1="647.5" y1="295.5" x2="665.5" y2="320.0" style="stroke:black; stroke-width:1px;" />
<line x1="665.5" y1="327.5" x2="665.5" y2="352.0" style="stroke:black; stroke-width:1px;" />
<line x1="732.875" y1="231.5" x2="683.5" y2="256.0" style="stroke:black; stroke-width:1px;" />
<line x1="732.875" y1="231.5" x2="719.5" y2="256.0" style="stroke:black; stroke-width:1px;" />
<line x1="719.5" y1="263.5" x2="719.5" y2="288.0" style="stroke:black; stroke-width:1px;" />
<line x1="719.5" y1="295.5" x2="700.0" y2="320.0" style="stroke:black; stroke-width:1px;" />
<line x1="719.5" y1="295.5" x2="739.0" y2="320.0" style="stroke:black; stroke-width:1px;" />
<line x1="739.0" y1="327.5" x2="739.0" y2="352.0" style="stroke:black; stroke-width:1px;" />
<line x1="739.0" y1="359.5" x2="739.0" y2="384.0" style="stroke:black; stroke-width:1px;" />
<line x1="739.0" y1="391.5" x2="739.0" y2="416.0" style="stroke:black; stroke-width:1px;" />
<line x1="739.0" y1="423.5" x2="739.0" y2="448.0" style="stroke:black; stroke-width:1px;" />
<line x1="732.875" y1="231.5" x2="771.375" y2="256.0" style="stroke:black; stroke-width:1px;" />
<line x1="732.875" y1="231.5" x2="823.25" y2="256.0" style="stroke:black; stroke-width:1px;" />
<line x1="823.25" y1="263.5" x2="823.25" y2="288.0" style="stroke:black; stroke-width:1px;" />
<line x1="823.25" y1="295.5" x2="788.5" y2="320.0" style="stroke:black; stroke-width:1px;" />
<line x1="788.5" y1="327.5" x2="788.5" y2="352.0" style="stroke:black; stroke-width:1px;" />
<line x1="823.25" y1="295.5" x2="815.5" y2="320.0" style="stroke:black; stroke-width:1px;" />
<line x1="823.25" y1="295.5" x2="858.0" y2="320.0" style="stroke:black; stroke-width:1px;" />
<line x1="858.0" y1="327.5" x2="833.5" y2="352.0" style="stroke:black; stroke-width:1px;" />
<line x1="833.5" y1="359.5" x2="833.5" y2="384.0" style="stroke:black; stroke-width:1px;" />
<line x1="833.5" y1="391.5" x2="833.5" y2="416.0" style="stroke:black; stroke-width:1px;" />
<line x1="833.5" y1="423.5" x2="833.5" y2="448.0" style="stroke:black; stroke-width:1px;" />
<line x1="858.0" y1="327.5" x2="858.0" y2="352.0" style="stroke:black; stroke-width:1px;" />
<line x1="858.0" y1="327.5" x2="882.5" y2="352.0" style="stroke:black; stroke-width:1px;" />
<line x1="882.5" y1="359.5" x2="882.5" y2="384.0" style="stroke:black; stroke-width:1px;" />
<line x1="882.5" y1="391.5" x2="882.5" y2="416.0" style="stroke:black; stroke-width:1px;" />
<line x1="882.5" y1="423.5" x2="882.5" y2="448.0" style="stroke:black; stroke-width:1px;" />
<line x1="732.875" y1="231.5" x2="867.75" y2="256.0" style="stroke:black; stroke-width:1px;" />
<line x1="488.71875" y1="103.5" x2="645.6875" y2="128.0" style="stroke:black; stroke-width:1px;" />
<line x1="290.109375" y1="7.5" x2="302.609375" y2="32.0" style="stroke:black; stroke-width:1px;" />
<rect x="646.5" y="352.0" width="38.0" height="15.0" style="fill:orange; stroke:rgb(0,0,0);" rx="1"/>
<text x="648" y="361" style="font-family:sans-serif;font-size:10px;">
square
</text>
<rect x="399.5" y="256.0" width="33.0" height="15.0" style="fill:orange; stroke:rgb(0,0,0);" rx="1"/>
<text x="401" y="265" style="font-family:sans-serif;font-size:10px;">
factor
</text>
<rect x="468.5" y="352.0" width="10.0" height="15.0" style="fill:orange; stroke:rgb(0,0,0);" rx="1"/>
<text x="470" y="361" style="font-family:sans-serif;font-size:10px;">
x
</text>
<rect x="271.75" y="384.0" width="10.0" height="15.0" style="fill:orange; stroke:rgb(0,0,0);" rx="1"/>
<text x="273" y="393" style="font-family:sans-serif;font-size:10px;">
x
</text>
<rect x="622.0" y="256.0" width="51.0" height="15.0" style="fill:orange; stroke:rgb(0,0,0);" rx="1"/>
<text x="624" y="265" style="font-family:sans-serif;font-size:10px;">
statement
</text>
<rect x="775.0" y="320.0" width="27.0" height="15.0" style="fill:orange; stroke:rgb(0,0,0);" rx="1"/>
<text x="777" y="329" style="font-family:sans-serif;font-size:10px;">
ident
</text>
<rect x="242.0" y="160.0" width="50.0" height="15.0" style="fill:orange; stroke:rgb(0,0,0);" rx="1"/>
<text x="244" y="169" style="font-family:sans-serif;font-size:10px;">
beginstmt
</text>
<rect x="862.5" y="416.0" width="40.0" height="15.0" style="fill:orange; stroke:rgb(0,0,0);" rx="1"/>
<text x="864" y="425" style="font-family:sans-serif;font-size:10px;">
number
</text>
<rect x="444.5" y="224.0" width="58.0" height="15.0" style="fill:orange; stroke:rgb(0,0,0);" rx="1"/>
<text x="446" y="233" style="font-family:sans-serif;font-size:10px;">
expression
</text>
<rect x="299.109375" y="32.0" width="7.0" height="15.0" style="fill:orange; stroke:rgb(0,0,0);" rx="1"/>
<text x="301" y="41" style="font-family:sans-serif;font-size:10px;">
.
</text>
<rect x="509.5" y="224.0" width="16.0" height="15.0" style="fill:orange; stroke:rgb(0,0,0);" rx="1"/>
<text x="511" y="233" style="font-family:sans-serif;font-size:10px;">
&lt;=
</text>
<rect x="694.0" y="256.0" width="51.0" height="15.0" style="fill:orange; stroke:rgb(0,0,0);" rx="1"/>
<text x="696" y="265" style="font-family:sans-serif;font-size:10px;">
statement
</text>
<rect x="853.0" y="352.0" width="10.0" height="15.0" style="fill:orange; stroke:rgb(0,0,0);" rx="1"/>
<text x="855" y="361" style="font-family:sans-serif;font-size:10px;">
+
</text>
<rect x="263.25" y="352.0" width="27.0" height="15.0" style="fill:orange; stroke:rgb(0,0,0);" rx="1"/>
<text x="265" y="361" style="font-family:sans-serif;font-size:10px;">
ident
</text>
<rect x="633.6875" y="128.0" width="24.0" height="15.0" style="fill:orange; stroke:rgb(0,0,0);" rx="1"/>
<text x="635" y="137" style="font-family:sans-serif;font-size:10px;">
END
</text>
<rect x="797.75" y="256.0" width="51.0" height="15.0" style="fill:orange; stroke:rgb(0,0,0);" rx="1"/>
<text x="799" y="265" style="font-family:sans-serif;font-size:10px;">
statement
</text>
<rect x="576.1875" y="160.0" width="50.0" height="15.0" style="fill:orange; stroke:rgb(0,0,0);" rx="1"/>
<text x="578" y="169" style="font-family:sans-serif;font-size:10px;">
whilestmt
</text>
<rect x="614.0" y="320.0" width="31.0" height="15.0" style="fill:orange; stroke:rgb(0,0,0);" rx="1"/>
<text x="616" y="329" style="font-family:sans-serif;font-size:10px;">
CALL
</text>
<rect x="0.0" y="96.0" width="27.0" height="15.0" style="fill:orange; stroke:rgb(0,0,0);" rx="1"/>
<text x="2" y="105" style="font-family:sans-serif;font-size:10px;">
VAR
</text>
<rect x="411.0" y="320.0" width="10.0" height="15.0" style="fill:orange; stroke:rgb(0,0,0);" rx="1"/>
<text x="413" y="329" style="font-family:sans-serif;font-size:10px;">
1
</text>
<rect x="237.25" y="96.0" width="7.0" height="15.0" style="fill:orange; stroke:rgb(0,0,0);" rx="1"/>
<text x="239" y="105" style="font-family:sans-serif;font-size:10px;">
;
</text>
<rect x="252.5" y="96.0" width="29.0" height="15.0" style="fill:orange; stroke:rgb(0,0,0);" rx="1"/>
<text x="254" y="105" style="font-family:sans-serif;font-size:10px;">
block
</text>
<rect x="575.6875" y="128.0" width="51.0" height="15.0" style="fill:orange; stroke:rgb(0,0,0);" rx="1"/>
<text x="577" y="137" style="font-family:sans-serif;font-size:10px;">
statement
</text>
<rect x="367.0" y="192.0" width="13.0" height="15.0" style="fill:orange; stroke:rgb(0,0,0);" rx="1"/>
<text x="369" y="201" style="font-family:sans-serif;font-size:10px;">
:=
</text>
<rect x="695.5" y="288.0" width="48.0" height="15.0" style="fill:orange; stroke:rgb(0,0,0);" rx="1"/>
<text x="697" y="297" style="font-family:sans-serif;font-size:10px;">
bangstmt
</text>
<rect x="829.0" y="320.0" width="58.0" height="15.0" style="fill:orange; stroke:rgb(0,0,0);" rx="1"/>
<text x="831" y="329" style="font-family:sans-serif;font-size:10px;">
expression
</text>
<rect x="722.5" y="384.0" width="33.0" height="15.0" style="fill:orange; stroke:rgb(0,0,0);" rx="1"/>
<text x="724" y="393" style="font-family:sans-serif;font-size:10px;">
factor
</text>
<rect x="318.25" y="352.0" width="27.0" height="15.0" style="fill:orange; stroke:rgb(0,0,0);" rx="1"/>
<text x="320" y="361" style="font-family:sans-serif;font-size:10px;">
ident
</text>
<rect x="315.25" y="320.0" width="33.0" height="15.0" style="fill:orange; stroke:rgb(0,0,0);" rx="1"/>
<text x="317" y="329" style="font-family:sans-serif;font-size:10px;">
factor
</text>
<rect x="532.5" y="224.0" width="58.0" height="15.0" style="fill:orange; stroke:rgb(0,0,0);" rx="1"/>
<text x="534" y="233" style="font-family:sans-serif;font-size:10px;">
expression
</text>
<rect x="255.25" y="256.0" width="13.0" height="15.0" style="fill:orange; stroke:rgb(0,0,0);" rx="1"/>
<text x="257" y="265" style="font-family:sans-serif;font-size:10px;">
:=
</text>
<rect x="353.25" y="160.0" width="56.0" height="15.0" style="fill:orange; stroke:rgb(0,0,0);" rx="1"/>
<text x="355" y="169" style="font-family:sans-serif;font-size:10px;">
assignstmt
</text>
<rect x="553.5" y="352.0" width="16.0" height="15.0" style="fill:orange; stroke:rgb(0,0,0);" rx="1"/>
<text x="555" y="361" style="font-family:sans-serif;font-size:10px;">
10
</text>
<rect x="84.5" y="128.0" width="22.0" height="15.0" style="fill:orange; stroke:rgb(0,0,0);" rx="1"/>
<text x="86" y="137" style="font-family:sans-serif;font-size:10px;">
squ
</text>
<rect x="652.0" y="320.0" width="27.0" height="15.0" style="fill:orange; stroke:rgb(0,0,0);" rx="1"/>
<text x="654" y="329" style="font-family:sans-serif;font-size:10px;">
ident
</text>
<rect x="260.25" y="320.0" width="33.0" height="15.0" style="fill:orange; stroke:rgb(0,0,0);" rx="1"/>
<text x="262" y="329" style="font-family:sans-serif;font-size:10px;">
factor
</text>
<rect x="221.25" y="256.0" width="27.0" height="15.0" style="fill:orange; stroke:rgb(0,0,0);" rx="1"/>
<text x="223" y="265" style="font-family:sans-serif;font-size:10px;">
ident
</text>
<rect x="452.0" y="192.0" width="35.0" height="15.0" style="fill:orange; stroke:rgb(0,0,0);" rx="1"/>
<text x="454" y="201" style="font-family:sans-serif;font-size:10px;">
WHILE
</text>
<rect x="707.875" y="224.0" width="50.0" height="15.0" style="fill:orange; stroke:rgb(0,0,0);" rx="1"/>
<text x="709" y="233" style="font-family:sans-serif;font-size:10px;">
beginstmt
</text>
<rect x="795.25" y="288.0" width="56.0" height="15.0" style="fill:orange; stroke:rgb(0,0,0);" rx="1"/>
<text x="797" y="297" style="font-family:sans-serif;font-size:10px;">
assignstmt
</text>
<rect x="614.6875" y="192.0" width="19.0" height="15.0" style="fill:orange; stroke:rgb(0,0,0);" rx="1"/>
<text x="616" y="201" style="font-family:sans-serif;font-size:10px;">
DO
</text>
<rect x="877.5" y="448.0" width="10.0" height="15.0" style="fill:orange; stroke:rgb(0,0,0);" rx="1"/>
<text x="879" y="457" style="font-family:sans-serif;font-size:10px;">
1
</text>
<rect x="288.5" y="96.0" width="7.0" height="15.0" style="fill:orange; stroke:rgb(0,0,0);" rx="1"/>
<text x="290" y="105" style="font-family:sans-serif;font-size:10px;">
;
</text>
<rect x="728.0" y="448.0" width="22.0" height="15.0" style="fill:orange; stroke:rgb(0,0,0);" rx="1"/>
<text x="730" y="457" style="font-family:sans-serif;font-size:10px;">
squ
</text>
<rect x="463.21875" y="64.0" width="51.0" height="15.0" style="fill:orange; stroke:rgb(0,0,0);" rx="1"/>
<text x="465" y="73" style="font-family:sans-serif;font-size:10px;">
statement
</text>
<rect x="725.5" y="416.0" width="27.0" height="15.0" style="fill:orange; stroke:rgb(0,0,0);" rx="1"/>
<text x="727" y="425" style="font-family:sans-serif;font-size:10px;">
ident
</text>
<rect x="241.5" y="224.0" width="56.0" height="15.0" style="fill:orange; stroke:rgb(0,0,0);" rx="1"/>
<text x="243" y="233" style="font-family:sans-serif;font-size:10px;">
assignstmt
</text>
<rect x="53.5" y="64.0" width="26.0" height="15.0" style="fill:orange; stroke:rgb(0,0,0);" rx="1"/>
<text x="55" y="73" style="font-family:sans-serif;font-size:10px;">
vars
</text>
<rect x="549.0" y="256.0" width="25.0" height="15.0" style="fill:orange; stroke:rgb(0,0,0);" rx="1"/>
<text x="551" y="265" style="font-family:sans-serif;font-size:10px;">
term
</text>
<rect x="396.0" y="288.0" width="40.0" height="15.0" style="fill:orange; stroke:rgb(0,0,0);" rx="1"/>
<text x="398" y="297" style="font-family:sans-serif;font-size:10px;">
number
</text>
<rect x="355.75" y="128.0" width="51.0" height="15.0" style="fill:orange; stroke:rgb(0,0,0);" rx="1"/>
<text x="357" y="137" style="font-family:sans-serif;font-size:10px;">
statement
</text>
<rect x="275.25" y="256.0" width="58.0" height="15.0" style="fill:orange; stroke:rgb(0,0,0);" rx="1"/>
<text x="277" y="265" style="font-family:sans-serif;font-size:10px;">
expression
</text>
<rect x="866.0" y="384.0" width="33.0" height="15.0" style="fill:orange; stroke:rgb(0,0,0);" rx="1"/>
<text x="868" y="393" style="font-family:sans-serif;font-size:10px;">
factor
</text>
<rect x="820.0" y="416.0" width="27.0" height="15.0" style="fill:orange; stroke:rgb(0,0,0);" rx="1"/>
<text x="822" y="425" style="font-family:sans-serif;font-size:10px;">
ident
</text>
<rect x="34.0" y="96.0" width="27.0" height="15.0" style="fill:orange; stroke:rgb(0,0,0);" rx="1"/>
<text x="36" y="105" style="font-family:sans-serif;font-size:10px;">
ident
</text>
<rect x="783.5" y="352.0" width="10.0" height="15.0" style="fill:orange; stroke:rgb(0,0,0);" rx="1"/>
<text x="785" y="361" style="font-family:sans-serif;font-size:10px;">
x
</text>
<rect x="130.0" y="96.0" width="65.0" height="15.0" style="fill:orange; stroke:rgb(0,0,0);" rx="1"/>
<text x="132" y="105" style="font-family:sans-serif;font-size:10px;">
PROCEDURE
</text>
<rect x="461.0" y="256.0" width="25.0" height="15.0" style="fill:orange; stroke:rgb(0,0,0);" rx="1"/>
<text x="463" y="265" style="font-family:sans-serif;font-size:10px;">
term
</text>
<rect x="291.75" y="288.0" width="25.0" height="15.0" style="fill:orange; stroke:rgb(0,0,0);" rx="1"/>
<text x="293" y="297" style="font-family:sans-serif;font-size:10px;">
term
</text>
<rect x="870.0" y="352.0" width="25.0" height="15.0" style="fill:orange; stroke:rgb(0,0,0);" rx="1"/>
<text x="872" y="361" style="font-family:sans-serif;font-size:10px;">
term
</text>
<rect x="855.75" y="256.0" width="24.0" height="15.0" style="fill:orange; stroke:rgb(0,0,0);" rx="1"/>
<text x="857" y="265" style="font-family:sans-serif;font-size:10px;">
END
</text>
<rect x="581.0" y="256.0" width="34.0" height="15.0" style="fill:orange; stroke:rgb(0,0,0);" rx="1"/>
<text x="583" y="265" style="font-family:sans-serif;font-size:10px;">
BEGIN
</text>
<rect x="487.71875" y="128.0" width="7.0" height="15.0" style="fill:orange; stroke:rgb(0,0,0);" rx="1"/>
<text x="489" y="137" style="font-family:sans-serif;font-size:10px;">
;
</text>
<rect x="463.71875" y="96.0" width="50.0" height="15.0" style="fill:orange; stroke:rgb(0,0,0);" rx="1"/>
<text x="465" y="105" style="font-family:sans-serif;font-size:10px;">
beginstmt
</text>
<rect x="627.5" y="288.0" width="40.0" height="15.0" style="fill:orange; stroke:rgb(0,0,0);" rx="1"/>
<text x="629" y="297" style="font-family:sans-serif;font-size:10px;">
callstmt
</text>
<rect x="82.0" y="96.0" width="27.0" height="15.0" style="fill:orange; stroke:rgb(0,0,0);" rx="1"/>
<text x="84" y="105" style="font-family:sans-serif;font-size:10px;">
ident
</text>
<rect x="241.5" y="128.0" width="51.0" height="15.0" style="fill:orange; stroke:rgb(0,0,0);" rx="1"/>
<text x="243" y="137" style="font-family:sans-serif;font-size:10px;">
statement
</text>
<rect x="223.75" y="288.0" width="22.0" height="15.0" style="fill:orange; stroke:rgb(0,0,0);" rx="1"/>
<text x="225" y="297" style="font-family:sans-serif;font-size:10px;">
squ
</text>
<rect x="202.0" y="96.0" width="27.0" height="15.0" style="fill:orange; stroke:rgb(0,0,0);" rx="1"/>
<text x="204" y="105" style="font-family:sans-serif;font-size:10px;">
ident
</text>
<rect x="196.5" y="128.0" width="38.0" height="15.0" style="fill:orange; stroke:rgb(0,0,0);" rx="1"/>
<text x="198" y="137" style="font-family:sans-serif;font-size:10px;">
square
</text>
<rect x="203.0" y="192.0" width="34.0" height="15.0" style="fill:orange; stroke:rgb(0,0,0);" rx="1"/>
<text x="205" y="201" style="font-family:sans-serif;font-size:10px;">
BEGIN
</text>
<rect x="244.0" y="192.0" width="51.0" height="15.0" style="fill:orange; stroke:rgb(0,0,0);" rx="1"/>
<text x="246" y="201" style="font-family:sans-serif;font-size:10px;">
statement
</text>
<rect x="302.0" y="192.0" width="24.0" height="15.0" style="fill:orange; stroke:rgb(0,0,0);" rx="1"/>
<text x="304" y="201" style="font-family:sans-serif;font-size:10px;">
END
</text>
<rect x="726.5" y="352.0" width="25.0" height="15.0" style="fill:orange; stroke:rgb(0,0,0);" rx="1"/>
<text x="728" y="361" style="font-family:sans-serif;font-size:10px;">
term
</text>
<rect x="314.75" y="128.0" width="34.0" height="15.0" style="fill:orange; stroke:rgb(0,0,0);" rx="1"/>
<text x="316" y="137" style="font-family:sans-serif;font-size:10px;">
BEGIN
</text>
<rect x="200.25" y="64.0" width="54.0" height="15.0" style="fill:orange; stroke:rgb(0,0,0);" rx="1"/>
<text x="202" y="73" style="font-family:sans-serif;font-size:10px;">
procedure
</text>
<rect x="767.875" y="256.0" width="7.0" height="15.0" style="fill:orange; stroke:rgb(0,0,0);" rx="1"/>
<text x="769" y="265" style="font-family:sans-serif;font-size:10px;">
;
</text>
<rect x="341.5" y="224.0" width="10.0" height="15.0" style="fill:orange; stroke:rgb(0,0,0);" rx="1"/>
<text x="343" y="233" style="font-family:sans-serif;font-size:10px;">
x
</text>
<rect x="545.0" y="288.0" width="33.0" height="15.0" style="fill:orange; stroke:rgb(0,0,0);" rx="1"/>
<text x="547" y="297" style="font-family:sans-serif;font-size:10px;">
factor
</text>
<rect x="326.75" y="384.0" width="10.0" height="15.0" style="fill:orange; stroke:rgb(0,0,0);" rx="1"/>
<text x="328" y="393" style="font-family:sans-serif;font-size:10px;">
x
</text>
<rect x="263.109375" y="32.0" width="29.0" height="15.0" style="fill:orange; stroke:rgb(0,0,0);" rx="1"/>
<text x="265" y="41" style="font-family:sans-serif;font-size:10px;">
block
</text>
<rect x="541.5" y="320.0" width="40.0" height="15.0" style="fill:orange; stroke:rgb(0,0,0);" rx="1"/>
<text x="543" y="329" style="font-family:sans-serif;font-size:10px;">
number
</text>
<rect x="809.0" y="320.0" width="13.0" height="15.0" style="fill:orange; stroke:rgb(0,0,0);" rx="1"/>
<text x="811" y="329" style="font-family:sans-serif;font-size:10px;">
:=
</text>
<rect x="333.0" y="192.0" width="27.0" height="15.0" style="fill:orange; stroke:rgb(0,0,0);" rx="1"/>
<text x="335" y="201" style="font-family:sans-serif;font-size:10px;">
ident
</text>
<rect x="268.109375" y="0.0" width="44.0" height="15.0" style="fill:orange; stroke:rgb(0,0,0);" rx="1"/>
<text x="270" y="9" style="font-family:sans-serif;font-size:10px;">
program
</text>
<rect x="460.0" y="320.0" width="27.0" height="15.0" style="fill:orange; stroke:rgb(0,0,0);" rx="1"/>
<text x="462" y="329" style="font-family:sans-serif;font-size:10px;">
ident
</text>
<rect x="710.0" y="320.0" width="58.0" height="15.0" style="fill:orange; stroke:rgb(0,0,0);" rx="1"/>
<text x="712" y="329" style="font-family:sans-serif;font-size:10px;">
expression
</text>
<rect x="387.0" y="192.0" width="58.0" height="15.0" style="fill:orange; stroke:rgb(0,0,0);" rx="1"/>
<text x="389" y="201" style="font-family:sans-serif;font-size:10px;">
expression
</text>
<rect x="403.5" y="224.0" width="25.0" height="15.0" style="fill:orange; stroke:rgb(0,0,0);" rx="1"/>
<text x="405" y="233" style="font-family:sans-serif;font-size:10px;">
term
</text>
<rect x="42.5" y="128.0" width="10.0" height="15.0" style="fill:orange; stroke:rgb(0,0,0);" rx="1"/>
<text x="44" y="137" style="font-family:sans-serif;font-size:10px;">
x
</text>
<rect x="697.0" y="320.0" width="6.0" height="15.0" style="fill:orange; stroke:rgb(0,0,0);" rx="1"/>
<text x="699" y="329" style="font-family:sans-serif;font-size:10px;">
!
</text>
<rect x="68.0" y="96.0" width="7.0" height="15.0" style="fill:orange; stroke:rgb(0,0,0);" rx="1"/>
<text x="70" y="105" style="font-family:sans-serif;font-size:10px;">
,
</text>
<rect x="116.0" y="96.0" width="7.0" height="15.0" style="fill:orange; stroke:rgb(0,0,0);" rx="1"/>
<text x="118" y="105" style="font-family:sans-serif;font-size:10px;">
;
</text>
<rect x="457.0" y="288.0" width="33.0" height="15.0" style="fill:orange; stroke:rgb(0,0,0);" rx="1"/>
<text x="459" y="297" style="font-family:sans-serif;font-size:10px;">
factor
</text>
<rect x="707.375" y="192.0" width="51.0" height="15.0" style="fill:orange; stroke:rgb(0,0,0);" rx="1"/>
<text x="709" y="201" style="font-family:sans-serif;font-size:10px;">
statement
</text>
<rect x="680.0" y="256.0" width="7.0" height="15.0" style="fill:orange; stroke:rgb(0,0,0);" rx="1"/>
<text x="682" y="265" style="font-family:sans-serif;font-size:10px;">
;
</text>
<rect x="300.25" y="320.0" width="8.0" height="15.0" style="fill:orange; stroke:rgb(0,0,0);" rx="1"/>
<text x="302" y="329" style="font-family:sans-serif;font-size:10px;">
*
</text>
<rect x="817.0" y="384.0" width="33.0" height="15.0" style="fill:orange; stroke:rgb(0,0,0);" rx="1"/>
<text x="819" y="393" style="font-family:sans-serif;font-size:10px;">
factor
</text>
<rect x="494.0" y="192.0" width="47.0" height="15.0" style="fill:orange; stroke:rgb(0,0,0);" rx="1"/>
<text x="496" y="201" style="font-family:sans-serif;font-size:10px;">
condition
</text>
<rect x="828.5" y="448.0" width="10.0" height="15.0" style="fill:orange; stroke:rgb(0,0,0);" rx="1"/>
<text x="830" y="457" style="font-family:sans-serif;font-size:10px;">
x
</text>
<rect x="821.0" y="352.0" width="25.0" height="15.0" style="fill:orange; stroke:rgb(0,0,0);" rx="1"/>
<text x="823" y="361" style="font-family:sans-serif;font-size:10px;">
term
</text>
</svg>